<svg xmlns="http://www.w3.org/2000/svg" viewBox="0 0 100 100">
  <g fill="#5e63b6">
    <path d="M65.4375 5L27.625 56.3125h21.34375L34.46875 95l7.75-0.0625L72.375 43.6875H51.03125L65.4375 5zM50 7.28125C26.449583 7.28125 7.28125 26.449403 7.28125 50c0 17.813869 10.964788 33.131095 26.5 39.53125 0.849295-2.239759 1.71713-4.477533 2.5625-6.71875C23.497307 77.47224 14.46875 64.810748 14.46875 50 14.46875 30.340591 30.340716 14.46875 50 14.46875c1.720512 0 3.408245 0.140118 5.0625 0.375 1.579968-2.139337 3.168915-4.299225 4.75-6.4375C56.663578 7.6637137 53.371995 7.28125 50 7.28125zM66.03125 10.40625c-0.789696 2.259199-1.580752 4.502519-2.40625 6.75C76.504761 22.482632 85.53125 35.165241 85.53125 50 85.53125 69.659428 69.659265 85.5 50 85.5c-1.712881 0-3.384016-0.110974-5.03125-0.34375-1.574011 2.142847-3.147457 4.292655-4.71875 6.4375 3.135097 0.735642 6.394168 1.125 9.75 1.125 23.550417 0 42.71875-19.168134 42.71875-42.71875 0-17.880037-11.060578-33.236346-26.6875-39.59375z"/>
  </g>
</svg>
